<?xml version="1.0" encoding="UTF-8"?>
<svg width="700pt" height="700pt" version="1.1" viewBox="0 0 700 700" xmlns="http://www.w3.org/2000/svg" xmlns:xlink="http://www.w3.org/1999/xlink">
 <g>
  <path d="m360.62 499.98c0.027344 0.023437 0.074219 0.011719 0.10156 0.035156 0.085938 0.054688 0.15625 0.09375 0.24219 0.14062 0.40234 0.23047 0.84375 0.39062 1.3477 0.39062 0.39062 0 0.76562-0.085937 1.1016-0.23047 0.011719-0.003906 0.015625 0 0.023437-0.003906l89.074-39.176 76.188-33.5c0.11719-0.050781 0.19531-0.14453 0.30078-0.21094 0.20312-0.11719 0.41016-0.23438 0.57812-0.40234 0.12891-0.13281 0.21094-0.30859 0.3125-0.46484 0.09375-0.14062 0.20703-0.26953 0.27344-0.42969 0.10547-0.25391 0.13281-0.53125 0.16406-0.8125 0.003907-0.085937 0.050781-0.15234 0.050781-0.24219v-0.027344-0.023437-81.367l52.578-23.121 17.879-7.8633c0.023437-0.011719 0.035156-0.027343 0.054687-0.039062 0.085938-0.039063 0.14062-0.11328 0.22266-0.15625 0.28125-0.16797 0.53125-0.35156 0.72656-0.59375 0.027344-0.039063 0.074219-0.050781 0.10156-0.085938 0.074219-0.10156 0.09375-0.20703 0.15234-0.3125 0.10156-0.17188 0.19531-0.34766 0.25781-0.54297 0.054687-0.16406 0.074219-0.33594 0.09375-0.50391 0.023437-0.18359 0.042969-0.35156 0.035156-0.54297-0.015625-0.19141-0.074219-0.37109-0.11719-0.55469-0.039063-0.125-0.035157-0.24609-0.085938-0.36328-0.023438-0.050781-0.066406-0.078125-0.089844-0.125-0.085937-0.15625-0.19531-0.29688-0.3125-0.44141-0.11719-0.15234-0.23438-0.30859-0.37891-0.42578-0.035156-0.035156-0.054688-0.085937-0.09375-0.11328l-68.336-51.785 49.887-21.945 21.5-9.4531c0.023438-0.011718 0.035157-0.027344 0.050781-0.039062 0.089844-0.039063 0.15234-0.11328 0.23047-0.15625 0.28125-0.16797 0.53125-0.35156 0.72656-0.59375 0.027344-0.039063 0.074218-0.050782 0.10156-0.085938 0.074219-0.10156 0.09375-0.21094 0.14453-0.3125 0.10547-0.17188 0.20312-0.34766 0.26172-0.54297 0.054688-0.16797 0.074219-0.33594 0.09375-0.50391 0.023438-0.17969 0.042969-0.35156 0.035156-0.54297-0.015624-0.19141-0.074218-0.37109-0.125-0.55469-0.035156-0.125-0.023437-0.24609-0.078124-0.36328-0.023438-0.050782-0.066407-0.078125-0.089844-0.125-0.085938-0.15625-0.19531-0.29688-0.3125-0.44141-0.11719-0.15234-0.23438-0.30859-0.37891-0.42578-0.039063-0.035156-0.054688-0.078125-0.09375-0.11328l-21.504-16.293-167.36-126.84c-0.10156-0.078124-0.21875-0.10156-0.33203-0.15625-0.16797-0.09375-0.33203-0.19141-0.51562-0.25391-0.16797-0.054687-0.34766-0.074218-0.51953-0.09375-0.17969-0.023437-0.34766-0.042968-0.53906-0.027344-0.18359 0.011719-0.35156 0.066407-0.53906 0.11719-0.125 0.035156-0.25781 0.027344-0.37891 0.085938l-74.246 32.652-60.238-45.652c-0.10156-0.078126-0.21094-0.09375-0.32031-0.15234-0.16797-0.10156-0.33984-0.19531-0.53125-0.25781-0.16406-0.054687-0.33594-0.074219-0.51562-0.09375-0.17188-0.023437-0.34766-0.042969-0.53906-0.027343-0.18359 0.011718-0.35156 0.066406-0.53906 0.11719-0.125 0.035156-0.25781 0.027344-0.37891 0.085937l-165.25 72.68c-0.050782 0.023438-0.085938 0.066406-0.12891 0.09375-0.15234 0.078125-0.28125 0.18359-0.42188 0.29688-0.15625 0.125-0.32031 0.24219-0.44922 0.39062-0.035156 0.039062-0.078125 0.054688-0.10547 0.09375-0.074219 0.10156-0.09375 0.21094-0.15234 0.3125-0.10156 0.17188-0.19531 0.34766-0.25781 0.54297-0.054688 0.16406-0.074219 0.33594-0.09375 0.50391-0.023438 0.17969-0.042969 0.35156-0.035157 0.54297 0.015626 0.19141 0.074219 0.37109 0.125 0.55469 0.035157 0.125 0.023438 0.24609 0.078126 0.36328 0.015624 0.039063 0.054687 0.050782 0.078124 0.089844 0.18359 0.37891 0.42969 0.74609 0.80078 1.0195l57.758 43.77-69.777 30.684c-0.050781 0.023438-0.085937 0.066407-0.125 0.09375-0.15625 0.074219-0.28125 0.1875-0.42187 0.30078-0.15625 0.11719-0.32031 0.23438-0.44141 0.38672-0.035156 0.039063-0.078125 0.054688-0.10547 0.09375-0.074218 0.10156-0.09375 0.21094-0.15234 0.3125-0.10156 0.17188-0.19531 0.34766-0.25781 0.54297-0.054687 0.16406-0.074218 0.33594-0.09375 0.50391-0.023437 0.17969-0.042968 0.35156-0.035156 0.54297 0.015625 0.19141 0.074219 0.37109 0.125 0.55469 0.035156 0.125 0.023438 0.24609 0.078125 0.36328 0.015625 0.039063 0.054687 0.050781 0.078125 0.089844 0.18359 0.37891 0.42969 0.74609 0.80078 1.0195l73.023 55.352v79.453c0 0.066406 0.035156 0.11719 0.039062 0.17969 0.011719 0.19531 0.0625 0.375 0.11719 0.57031 0.042969 0.16797 0.089843 0.33594 0.16406 0.48828 0.078125 0.14453 0.17969 0.28125 0.28125 0.41406 0.125 0.16406 0.24219 0.3125 0.39062 0.44141 0.050782 0.042968 0.074219 0.10156 0.11719 0.13281zm-83.824-431.1 56.441 42.777-159.4 70.113-56.445-42.785zm137.3 13.332 166.04 125.85 17.703 13.41-17.141 7.5391-52.746 23.207-183.74-139.27zm180.13 227.24-13.523 5.9453-54.254 23.863-91.629 40.297-67.027-50.797 97.777-43.004 61.629-27.098 52.938 40.113zm-69.445 113.79-70.59 31.035v-35.723-0.015625c-0.003906-0.21094-0.085937-0.42969-0.12891-0.64844-0.039062-0.14453-0.042969-0.30078-0.10156-0.4375-0.003907-0.011719 0-0.015625-0.003907-0.023437-0.050781-0.11328-0.13281-0.17969-0.20312-0.28516-0.11719-0.20703-0.24219-0.42188-0.41406-0.58984-0.12891-0.12891-0.29688-0.20703-0.44922-0.30859-0.14453-0.09375-0.28125-0.21094-0.44922-0.28125-0.25781-0.11328-0.53906-0.14062-0.81641-0.16406-0.078125-0.011719-0.14453-0.050782-0.23047-0.050782h-0.011719c-0.21094 0.003906-0.42187 0.078125-0.63281 0.12891-0.15234 0.039063-0.32031 0.039063-0.46094 0.10156-0.011718 0.003906-0.015624 0.003906-0.023437 0.003906l-14.281 6.2891c-0.11719 0.050781-0.19141 0.14062-0.29688 0.20703-0.20312 0.125-0.41406 0.24219-0.58203 0.41016-0.125 0.12891-0.20312 0.29688-0.30078 0.44141-0.10156 0.15234-0.21875 0.28516-0.28516 0.45312-0.10547 0.25391-0.12891 0.51953-0.15625 0.78906-0.011719 0.09375-0.054687 0.16797-0.054687 0.26172v0.027344 0.027343 38.129l-69.195 30.43v-159.71l67.641 51.27c0.027344 0.023437 0.074219 0.011719 0.10156 0.035156 0.46875 0.33203 1.0117 0.53906 1.5898 0.53906 0.375 0 0.76172-0.078126 1.125-0.23438l89.207-39.234 0.011718 77.129zm-188.86-267.38-116.43 60.516-40.551-30.734 156.98-69.043zm4.0938 4.1836 8.1758-4.25 109.73 87.371 3.5508 38.281-98.785 43.445-138.25-104.78zm-122.49 61.859 139.29 105.57-68.273 30.027-113.4-85.941-70.336-53.312 68.27-30.023z"/>
 </g>
</svg>
