<?xml version="1.0" encoding="UTF-8"?>
<svg width="700pt" height="700pt" version="1.1" viewBox="0 0 700 700" xmlns="http://www.w3.org/2000/svg" xmlns:xlink="http://www.w3.org/1999/xlink">
 <g>
  <path d="m107.91 367.55c0.054688 0.17188 0.14062 0.32422 0.23047 0.47656s0.17188 0.30078 0.29297 0.42969c0.13281 0.15234 0.28516 0.27344 0.44922 0.39062 0.089844 0.066406 0.14453 0.15625 0.24609 0.21875l285.3 164.71h0.011719c0.039062 0.027343 0.09375 0.027343 0.13281 0.050781 0.375 0.19141 0.78906 0.32422 1.2422 0.33203h0.003906 0.003906 0.003907 0.003906c0.45312-0.003906 0.86328-0.13281 1.2422-0.33203 0.042969-0.023438 0.10156-0.023438 0.13281-0.050781h0.011719l104.12-60.109 86.078-49.688c0.10156-0.0625 0.15625-0.15234 0.25391-0.21875 0.15625-0.11719 0.3125-0.24219 0.44141-0.39062 0.11719-0.12891 0.20312-0.28125 0.29297-0.42969 0.089844-0.15234 0.17188-0.30078 0.23438-0.47656 0.0625-0.18359 0.089843-0.37109 0.11719-0.57031 0.011719-0.11719 0.066406-0.21094 0.066406-0.33594v-219.63c0-0.0625-0.035156-0.10547-0.035156-0.16406-0.003906-0.11719-0.023437-0.24219-0.050781-0.35937-0.027344-0.12891-0.0625-0.25391-0.10156-0.375-0.042968-0.11719-0.085937-0.23047-0.14062-0.33984-0.027344-0.050782-0.023438-0.11328-0.050782-0.15625-0.035156-0.050782-0.085937-0.078125-0.11719-0.125-0.066407-0.10547-0.13281-0.19141-0.21875-0.28516-0.09375-0.10547-0.17969-0.19531-0.28516-0.28516-0.09375-0.085937-0.18359-0.15234-0.29297-0.21875-0.042969-0.035156-0.074219-0.085937-0.11719-0.11328l-285.29-164.71c-0.10547-0.0625-0.21875-0.066406-0.32422-0.11328-0.18359-0.078125-0.35938-0.14453-0.55469-0.18359-0.17969-0.035157-0.34766-0.039063-0.52734-0.039063s-0.34766 0.003906-0.52734 0.039063c-0.19531 0.039062-0.375 0.11328-0.56641 0.19141-0.10156 0.042968-0.21094 0.042968-0.30859 0.10547l-87.387 50.457h-0.003907l-7.6953 4.4453c0 0.003906-0.003907 0.003906-0.003907 0.003906l-7.9258 4.5625c-0.003906 0.003907-0.003906 0.011719-0.011719 0.011719l-87.16 50.324c-0.050781 0.027344-0.074218 0.078125-0.11719 0.10547-0.10547 0.074219-0.20312 0.14062-0.29297 0.22266-0.10547 0.089844-0.19141 0.17969-0.28125 0.28516-0.078125 0.09375-0.15234 0.17969-0.21875 0.28516-0.035156 0.050781-0.085938 0.078124-0.11328 0.125-0.027344 0.042968-0.027344 0.11328-0.054688 0.15625-0.054687 0.11328-0.10156 0.21875-0.13281 0.33984-0.042969 0.125-0.078125 0.24609-0.10547 0.375-0.023438 0.11719-0.039062 0.24219-0.042969 0.35938 0 0.0625-0.035156 0.10547-0.035156 0.16406v219.63c0 0.11719 0.050781 0.21875 0.066406 0.33594 0.015625 0.19531 0.042969 0.38672 0.10938 0.57031zm192.82-327.11 279.7 161.48-81.801 47.223-279.7-161.48zm201.98 385.1c-0.011719-0.18359-0.0625-0.36328-0.11328-0.55469-0.054687-0.17969-0.10156-0.35938-0.17969-0.52734-0.027344-0.050782-0.023438-0.11328-0.050781-0.15625-0.066407-0.10547-0.15625-0.16406-0.23047-0.25781-0.11719-0.15625-0.23438-0.30859-0.38672-0.4375-0.12891-0.11719-0.28125-0.20312-0.42578-0.29297-0.15625-0.089844-0.3125-0.17188-0.48828-0.23438-0.17969-0.0625-0.35938-0.089843-0.55859-0.11328-0.11719-0.015625-0.21875-0.074219-0.33984-0.074219-0.0625 0-0.11328 0.035157-0.16406 0.035157-0.18359 0.011718-0.35938 0.0625-0.54297 0.11328-0.19141 0.050781-0.37109 0.10156-0.54297 0.18359-0.050781 0.023438-0.10547 0.023438-0.15234 0.050782l-16.441 9.4883c-0.10156 0.054687-0.15625 0.15234-0.25391 0.21875-0.15625 0.11719-0.3125 0.24219-0.44141 0.39062-0.11719 0.12891-0.20313 0.28125-0.29297 0.42969-0.089844 0.15234-0.17188 0.30078-0.23438 0.47656-0.0625 0.18359-0.089844 0.37109-0.11719 0.57031-0.011718 0.11719-0.066406 0.21094-0.066406 0.33594v43.926l-82.062 47.398v-213.16l81.574-47.09v51.066c0 0.0625 0.027343 0.10547 0.035156 0.16406 0.011719 0.18359 0.0625 0.36328 0.11328 0.55469 0.050782 0.17969 0.09375 0.35938 0.17188 0.52734 0.027344 0.050782 0.023438 0.11328 0.054688 0.15625 0.042969 0.074219 0.11719 0.10156 0.16406 0.15625 0.19531 0.29297 0.42969 0.52734 0.72266 0.71875 0.10156 0.066407 0.17969 0.14063 0.28516 0.19141 0.37891 0.19531 0.80078 0.33594 1.2617 0.33594h0.011719c0.46094-0.003906 0.875-0.14062 1.2617-0.34766 0.042969-0.023438 0.089844-0.011719 0.12891-0.035156l15.629-9.0234c0.10156-0.054687 0.15625-0.15234 0.25391-0.21875 0.15625-0.11719 0.3125-0.24219 0.44141-0.39062 0.11719-0.12891 0.20312-0.28125 0.29297-0.42969 0.089844-0.15234 0.17188-0.30078 0.23438-0.47656 0.0625-0.18359 0.089843-0.37109 0.11719-0.57031 0.011719-0.11719 0.066406-0.21094 0.066406-0.33594v-54.309l81.789-47.227v213.17l-80.477 46.457-0.007812-40.68c-0.011719-0.054688-0.039062-0.10547-0.039062-0.16797zm-305.01-325.62 279.7 161.49-81.574 47.09-279.7-161.49z"/>
  <path d="m512.43 344.9c0.15625-0.11719 0.3125-0.24219 0.44141-0.39062 0.11719-0.12891 0.20703-0.28125 0.29688-0.42969 0.089843-0.15234 0.17188-0.30078 0.23047-0.47656 0.066406-0.18359 0.09375-0.37109 0.11719-0.57031 0.015625-0.11719 0.074219-0.21094 0.074219-0.33594v-14.867c0-0.054687-0.035156-0.10547-0.035156-0.16406-0.011719-0.18359-0.066407-0.36328-0.11719-0.55469-0.050781-0.17969-0.09375-0.35938-0.17188-0.52734-0.027344-0.050782-0.027344-0.11328-0.054687-0.15625-0.0625-0.10547-0.15625-0.16406-0.22266-0.25781-0.11719-0.15625-0.24219-0.30859-0.38672-0.4375-0.13281-0.11719-0.28125-0.20312-0.42969-0.29297-0.15234-0.089844-0.30859-0.17188-0.48047-0.23438-0.18359-0.0625-0.36328-0.089843-0.55859-0.11328-0.11719-0.015625-0.21875-0.074219-0.33984-0.074219-0.066407 0-0.11328 0.035157-0.16797 0.035157-0.18359 0.011718-0.35156 0.0625-0.54297 0.11328-0.19141 0.050781-0.37109 0.10156-0.53906 0.18359-0.054688 0.023438-0.11328 0.023438-0.15234 0.050782l-43.523 25.129c-0.003907 0.003906-0.003907 0.003906-0.011719 0.003906l-1.043 0.59375c-0.10547 0.0625-0.16406 0.15625-0.25781 0.22266-0.15625 0.11719-0.3125 0.24219-0.4375 0.38672-0.11719 0.13281-0.20313 0.28125-0.29297 0.42578-0.09375 0.15625-0.17969 0.3125-0.24219 0.48828-0.0625 0.17969-0.089843 0.36328-0.11719 0.55859-0.011719 0.11719-0.066406 0.22266-0.066406 0.34766v14.867c0 0.0625 0.035156 0.10547 0.035156 0.16406 0.011718 0.18359 0.0625 0.36328 0.11328 0.55469 0.054687 0.17969 0.10156 0.35938 0.17969 0.52734 0.027344 0.050781 0.023438 0.11328 0.050782 0.15625 0.042968 0.074219 0.11719 0.10156 0.16406 0.15625 0.19531 0.29297 0.4375 0.52734 0.72266 0.71875 0.10156 0.066406 0.17969 0.14062 0.28516 0.19141 0.37891 0.19531 0.80078 0.33594 1.2617 0.33594h0.011718c0.46094-0.003907 0.87891-0.14062 1.2656-0.34766 0.039063-0.023437 0.089844-0.011718 0.125-0.035156l13.914-8.0352 30.664-17.703c0.089844-0.042969 0.14062-0.13672 0.23828-0.20703zm-33.715 13.078-9.7148 5.6094v-8.4062l38.98-22.512v8.4102z"/>
 </g>
</svg>
